<svg width="100%" height="100%" viewBox="0 0 256 256" version="1.1" xmlns="http://www.w3.org/2000/svg" xmlns:xlink="http://www.w3.org/1999/xlink" xml:space="preserve" xmlns:serif="http://www.serif.com/" style="fill-rule:evenodd;clip-rule:evenodd;stroke-linejoin:round;stroke-miterlimit:2;">
    <g transform="matrix(0.87863,0,0,0.87863,-521.712,-394.708)">
        <path d="M825.322,576.408C826.396,574.755 826.478,572.647 825.538,570.915C824.598,569.183 822.785,568.105 820.814,568.105C811.257,568.105 797.38,568.105 791.403,568.105C789.583,568.105 787.886,569.026 786.895,570.553C778.663,583.229 740.913,641.359 731.975,655.122C730.819,656.902 730.819,659.196 731.975,660.977C735.267,666.046 742.114,676.589 746.681,683.621C747.672,685.148 749.369,686.069 751.189,686.069C753.009,686.069 754.705,685.148 755.697,683.621C769.398,662.524 810.512,599.214 825.322,576.408ZM715.619,635.791C716.611,637.317 718.307,638.238 720.127,638.238C721.947,638.238 723.644,637.317 724.635,635.791C736.846,616.989 770.155,565.696 777.825,553.886C778.816,552.359 780.513,551.438 782.333,551.438C792.005,551.438 823.106,551.438 835.705,551.438C838.674,551.438 841.08,549.032 841.08,546.063C841.08,539.389 841.08,528.071 841.08,521.397C841.08,518.428 838.674,516.022 835.705,516.022C820.079,516.022 775.018,516.022 763.103,516.022C761.283,516.022 759.587,516.943 758.595,518.469C751.155,529.926 720.127,577.705 720.127,577.705C720.127,577.705 689.1,529.926 681.659,518.469C680.668,516.943 678.972,516.022 677.151,516.022L647.74,516.022C645.769,516.022 643.957,517.1 643.016,518.832C642.076,520.564 642.159,522.671 643.232,524.324C658.451,547.759 701.545,614.118 715.619,635.791Z"/>
    </g>
</svg>